<svg xmlns="http://www.w3.org/2000/svg" xmlns:xlink="http://www.w3.org/1999/xlink" width="86" height="86" viewBox="0 0 86 86"><defs><style>.a{fill:#fff;}.b{filter:url(#a);}</style><filter id="a" x="0" y="0" width="86" height="86" filterUnits="userSpaceOnUse"><feOffset dy="3" input="SourceAlpha"/><feGaussianBlur stdDeviation="3" result="b"/><feFlood flood-opacity="0.161"/><feComposite operator="in" in2="b"/><feComposite in="SourceGraphic"/></filter></defs><g transform="translate(9 6)"><g class="b" transform="matrix(1, 0, 0, 1, -9, -6)"><rect width="68" height="68" rx="34" transform="translate(9 6)"/></g><g transform="translate(15.84 15.186)"><g transform="translate(0 0)"><path class="a" d="M36.087,16.135a.806.806,0,0,0-.672-.224H25.779V11.654a7.619,7.619,0,0,0-15.237,0v4.258H.906c-.269,0-.538,0-.672.224a.762.762,0,0,0-.224.672L3.371,35.182a5.468,5.468,0,0,0,5.288,4.482h19a5.512,5.512,0,0,0,5.288-4.526l3.361-18.33A.762.762,0,0,0,36.087,16.135ZM12.334,11.654a5.826,5.826,0,0,1,11.652,0v4.258H12.334ZM31.157,34.913a3.585,3.585,0,0,1-3.5,2.958h-19a3.585,3.585,0,0,1-3.5-2.958L1.982,17.7H34.339Z" transform="translate(0 -4.035)"/><path class="a" d="M280.523,217.5a.9.9,0,0,0,.9-.9V213.91a.9.9,0,0,0-1.793,0V216.6A.9.9,0,0,0,280.523,217.5Z" transform="translate(-255.64 -195.088)"/><path class="a" d="M123.788,217.5a.9.9,0,0,0,.9-.9V213.91a.9.9,0,0,0-1.793,0V216.6A.9.9,0,0,0,123.788,217.5Z" transform="translate(-112.35 -195.088)"/></g></g></g></svg>