<svg xmlns="http://www.w3.org/2000/svg" width="23" height="11.5" viewBox="0 0 23 11.5"><g transform="translate(0)"><g transform="translate(0 0)"><path d="M22.281,97.68H.719a.719.719,0,1,1,0-1.437H22.281a.719.719,0,1,1,0,1.437Z" transform="translate(0 -96.243)"/><path d="M.719,180.455H22.281a.719.719,0,0,1,0,1.437H.719a.719.719,0,0,1,0-1.437Z" transform="translate(0 -175.424)"/><path d="M121.022,264.667H135.4a.719.719,0,1,1,0,1.437H121.022a.719.719,0,1,1,0-1.437Z" transform="translate(-120.303 -254.604)"/></g></g></svg>