<svg xmlns="http://www.w3.org/2000/svg" width="33.68" height="33.68" viewBox="0 0 33.68 33.68"><g transform="translate(-4.5 -4.5)"><path d="M28.356,7.307a7.037,7.037,0,0,1,7.017,7.017V28.356a7.037,7.037,0,0,1-7.017,7.017H14.323a7.037,7.037,0,0,1-7.017-7.017V14.323a7.037,7.037,0,0,1,7.017-7.017H28.356m0-2.807H14.323A9.852,9.852,0,0,0,4.5,14.323V28.356a9.852,9.852,0,0,0,9.823,9.823H28.356a9.852,9.852,0,0,0,9.823-9.823V14.323A9.852,9.852,0,0,0,28.356,4.5Z"/><path d="M25.73,13.21a2.1,2.1,0,1,1,2.1-2.1A2.1,2.1,0,0,1,25.73,13.21Z" transform="translate(4.731 1.113)"/><path d="M19.67,14.057a5.613,5.613,0,1,1-5.613,5.613,5.618,5.618,0,0,1,5.613-5.613m0-2.807a8.42,8.42,0,1,0,8.42,8.42,8.422,8.422,0,0,0-8.42-8.42Z" transform="translate(1.67 1.67)"/></g></svg>